<svg width="180" height="180" viewBox="0 0 180 180" fill="none" xmlns="http://www.w3.org/2000/svg">
<g clip-path="url(#clip0_4401_576)">
<path d="M177.308 111.764C165.283 160.004 116.408 189.329 68.2368 177.303C19.9954 165.279 -9.32916 116.406 2.69639 68.2354C14.7212 19.9954 63.5251 -9.32916 111.767 2.69639C159.938 14.6509 189.333 63.5237 177.308 111.764Z" fill="url(#paint0_linear_4401_576)"/>
<path d="M132.852 78.7852C134.61 66.832 125.54 60.3633 113.024 56.0742L117.102 39.832L107.258 37.3711L103.321 53.1914C100.719 52.5586 98.0474 51.9258 95.3755 51.3633L99.313 35.4727L89.4692 33.0117L85.4614 49.1836C83.2817 48.6914 81.1724 48.1992 79.1333 47.707V47.6367L65.4927 44.2617L62.8911 54.8086C62.8911 54.8086 70.2036 56.4961 70.063 56.5664C74.0708 57.5508 74.7739 60.2227 74.6333 62.332L69.9927 80.8242C70.2739 80.8945 70.6255 80.9648 71.0474 81.1758C70.6958 81.1055 70.3442 81.0352 69.9927 80.8945L63.5239 106.77C63.0317 107.965 61.7661 109.793 59.0239 109.09C59.0942 109.23 51.8521 107.332 51.8521 107.332L46.9302 118.652L59.7974 121.887C62.188 122.52 64.5083 123.082 66.8286 123.715L62.7505 140.098L72.5942 142.559L76.6724 126.316C79.3442 127.02 82.0161 127.723 84.5474 128.355L80.5395 144.527L90.3833 146.988L94.4614 130.605C111.336 133.77 123.993 132.504 129.266 117.246C133.555 105.012 129.055 97.9102 120.196 93.2695C126.735 91.793 131.586 87.5039 132.852 78.7852ZM110.282 110.426C107.258 122.66 86.5864 116.051 79.9067 114.363L85.3208 92.6367C92.0005 94.3242 113.516 97.6289 110.282 110.426ZM113.375 78.5742C110.563 89.7539 93.4067 84.0586 87.852 82.6523L92.7739 62.9648C98.3286 64.3711 116.258 66.9727 113.375 78.5742Z" fill="white"/>
</g>
<defs>
<linearGradient id="paint0_linear_4401_576" x1="8995.13" y1="-4.32" x2="8995.13" y2="17998.2" gradientUnits="userSpaceOnUse">
<stop stop-color="#F9AA4B"/>
<stop offset="1" stop-color="#F7931A"/>
</linearGradient>
<clipPath id="clip0_4401_576">
<rect width="180" height="180" fill="white"/>
</clipPath>
</defs>
</svg>
